<svg xmlns="http://www.w3.org/2000/svg" viewBox="0 0 512 512"><!--Sparkles — the conventional "generate with AI" affordance. Drawn to match the FontAwesome-style 512 viewBox + solid-fill convention of the rest of the set.--><path d="M256 32c9.4 0 17.8 5.5 21.6 14.1l38.7 87.6 87.6 38.7c8.6 3.8 14.1 12.2 14.1 21.6s-5.5 17.8-14.1 21.6l-87.6 38.7-38.7 87.6c-3.8 8.6-12.2 14.1-21.6 14.1s-17.8-5.5-21.6-14.1l-38.7-87.6-87.6-38.7c-8.6-3.8-14.1-12.2-14.1-21.6s5.5-17.8 14.1-21.6l87.6-38.7 38.7-87.6C238.2 37.5 246.6 32 256 32zM110 316c7.1 0 13.4 4.1 16.3 10.6l19.4 43.7 43.7 19.4c6.4 2.9 10.6 9.2 10.6 16.3s-4.1 13.4-10.6 16.3l-43.7 19.4-19.4 43.7c-2.9 6.4-9.2 10.6-16.3 10.6s-13.4-4.1-16.3-10.6L74.3 441.7 30.6 422.3C24.1 419.4 20 413.1 20 406s4.1-13.4 10.6-16.3l43.7-19.4 19.4-43.7C96.6 320.1 102.9 316 110 316zM402 316c7.1 0 13.4 4.1 16.3 10.6l19.4 43.7 43.7 19.4c6.4 2.9 10.6 9.2 10.6 16.3s-4.1 13.4-10.6 16.3l-43.7 19.4-19.4 43.7c-2.9 6.4-9.2 10.6-16.3 10.6s-13.4-4.1-16.3-10.6l-19.4-43.7-43.7-19.4c-6.4-2.9-10.6-9.2-10.6-16.3s4.1-13.4 10.6-16.3l43.7-19.4 19.4-43.7C388.6 320.1 394.9 316 402 316z"/></svg>
