<svg style="background: var(--surface-card); position: absolute;" class="s-WvTsNnyMm4aJ" id="plot16" width="525" height="300" viewBox="0 0 525 300"><!----><!----><g class="axis-left" fill="none" font-size="10" font-family="sans-serif" text-anchor="end" style="transform: translate(60px, 15px); font-size: 15px; font-family: system-ui, -apple-system, &quot;Segoe UI&quot;, Roboto, Helvetica, Arial, sans-serif;"><path class="domain" stroke="currentColor" d="M0.5,250.5V0.5"></path><g class="tick" opacity="1" transform="translate(0,250.5)"><line stroke="currentColor" x2="-6"></line><text fill="currentColor" x="-10" dy="0.32em">0</text></g><g class="tick" opacity="1" transform="translate(0,208.83333333333334)"><line stroke="currentColor" x2="-6"></line><text fill="currentColor" x="-10" dy="0.32em">5</text><line class="gridline" x1="0" x2="435" style="stroke: grey; stroke-width: 1px; stroke-dasharray: 4; stroke-opacity: 0.8;"></line></g><g class="tick" opacity="1" transform="translate(0,167.16666666666669)"><line stroke="currentColor" x2="-6"></line><text fill="currentColor" x="-10" dy="0.32em">10</text><line class="gridline" x1="0" x2="435" style="stroke: grey; stroke-width: 1px; stroke-dasharray: 4; stroke-opacity: 0.8;"></line></g><g class="tick" opacity="1" transform="translate(0,125.5)"><line stroke="currentColor" x2="-6"></line><text fill="currentColor" x="-10" dy="0.32em">15</text><line class="gridline" x1="0" x2="435" style="stroke: grey; stroke-width: 1px; stroke-dasharray: 4; stroke-opacity: 0.8;"></line></g><g class="tick" opacity="1" transform="translate(0,83.83333333333334)"><line stroke="currentColor" x2="-6"></line><text fill="currentColor" x="-10" dy="0.32em">20</text><line class="gridline" x1="0" x2="435" style="stroke: grey; stroke-width: 1px; stroke-dasharray: 4; stroke-opacity: 0.8;"></line></g><g class="tick" opacity="1" transform="translate(0,42.16666666666666)"><line stroke="currentColor" x2="-6"></line><text fill="currentColor" x="-10" dy="0.32em">25</text><line class="gridline" x1="0" x2="435" style="stroke: grey; stroke-width: 1px; stroke-dasharray: 4; stroke-opacity: 0.8;"></line></g><g class="tick" opacity="1" transform="translate(0,0.5)"><line stroke="currentColor" x2="-6"></line><text fill="currentColor" x="-10" dy="0.32em">30</text><line class="gridline" x1="0" x2="435" style="stroke: grey; stroke-width: 1px; stroke-dasharray: 4; stroke-opacity: 0.8;"></line></g><text class="axis-label" transform="rotate(-90)" x="-125" y="-38.390625" style="font-size: 16px; font-family: system-ui, -apple-system, &quot;Segoe UI&quot;, Roboto, Helvetica, Arial, sans-serif; text-anchor: middle; fill: black;">Count</text></g><!----><!----><!----><g class="axis-bottom" fill="none" font-size="10" font-family="sans-serif" text-anchor="middle" style="transform: translate(60px, 265px); font-size: 15px; font-family: system-ui, -apple-system, &quot;Segoe UI&quot;, Roboto, Helvetica, Arial, sans-serif;"><path class="domain" stroke="currentColor" d="M0.5,0.5H435.5"></path><g class="tick" opacity="1" transform="translate(8.865384615384622,0)"><line stroke="currentColor" y2="6"></line><text fill="currentColor" y="10" dy="0.71em">−3</text></g><g class="tick" opacity="1" transform="translate(78.57692307692308,0)"><line stroke="currentColor" y2="6"></line><text fill="currentColor" y="10" dy="0.71em">−2</text></g><g class="tick" opacity="1" transform="translate(148.28846153846155,0)"><line stroke="currentColor" y2="6"></line><text fill="currentColor" y="10" dy="0.71em">−1</text></g><g class="tick" opacity="1" transform="translate(218,0)"><line stroke="currentColor" y2="6"></line><text fill="currentColor" y="10" dy="0.71em">0</text></g><g class="tick" opacity="1" transform="translate(287.71153846153845,0)"><line stroke="currentColor" y2="6"></line><text fill="currentColor" y="10" dy="0.71em">1</text></g><g class="tick" opacity="1" transform="translate(357.4230769230769,0)"><line stroke="currentColor" y2="6"></line><text fill="currentColor" y="10" dy="0.71em">2</text></g><g class="tick" opacity="1" transform="translate(427.13461538461536,0)"><line stroke="currentColor" y2="6"></line><text fill="currentColor" y="10" dy="0.71em">3</text></g><text class="axis-label" x="217.5" y="38" style="font-size: 16px; font-family: system-ui, -apple-system, &quot;Segoe UI&quot;, Roboto, Helvetica, Arial, sans-serif; text-anchor: middle; fill: black;"></text></g><!----><!----><g class="s-WvTsNnyMm4aJ" style="fill-opacity: 0.5; stroke: rgb(0, 0, 0); stroke-width: 1;"><polyline points="8.365384615384622,250 8.365384615384622,241.66666666666666 78.07692307692308,241.66666666666666 78.07692307692308,250 78.07692307692308,250 78.07692307692308,108.33333333333334 147.78846153846155,108.33333333333334 147.78846153846155,250 147.78846153846155,250 147.78846153846155,49.999999999999986 217.5,49.999999999999986 217.5,250 217.5,250 217.5,8.333333333333332 287.21153846153845,8.333333333333332 287.21153846153845,250 287.21153846153845,250 287.21153846153845,175 356.9230769230769,175 356.9230769230769,250 356.9230769230769,250 356.9230769230769,250 426.63461538461536,250 426.63461538461536,250" fill="#234154" transform="translate(60, 15)" style=""></polyline><!----><!----></g><!----><!----><!----><!----><!----><g transform="translate(403.806640625, 25)"><rect x="0" y="0" rx="3" width="81.193359375" height="36" fill="rgba(255, 255, 255, 0.9)" stroke="var(--color-lightness-25)" stroke-width="1"></rect><!----><g transform="translate(8, 18)"><!----><rect x="3" y="-6" width="14" height="12" stroke-width="2" fill="#234154" fill-opacity="0.5" stroke="#000000"></rect><!----><text dy="0.35em" fill="black" y="0" x="29" font-size="12" font-family="system-ui, -apple-system, &quot;Segoe UI&quot;, Roboto, Helvetica, Arial, sans-serif">noise</text></g><!----></g><!----></svg>